<svg xmlns="http://www.w3.org/2000/svg" width="350" height="300" viewBox="0 0 350 300">
  <defs>
    <style>
      .a, .b, .d, .e, .h, .i, .k, .l, .n, .o, .p {
        fill: none;
        stroke-miterlimit: 10;
      }

      .a, .d, .e, .h, .i, .k, .l, .o, .p {
        stroke: #4a494d;
      }

      .a, .b, .d, .h, .k, .n, .o {
        stroke-linecap: round;
      }

      .a {
        stroke-width: 2px;
        stroke-dasharray: 0 6;
      }

      .a, .k, .l, .m, .n {
        opacity: 0.4;
      }

      .b {
        stroke: #515050;
      }

      .b, .d, .e, .h, .i, .k, .l {
        stroke-width: 0.75px;
      }

      .c {
        fill: #fff;
      }

      .d, .e, .f {
        opacity: 0.15;
      }

      .g {
        fill: #4a494d;
      }

      .h, .i, .j {
        opacity: 0.25;
      }

      .n {
        stroke: #494949;
      }
    </style>
  </defs>
  <title>SW</title>
  <line class="a" x1="29.841" y1="197.305" x2="60.841" y2="197.305"/>
  <g>
    <g>
      <path class="b" d="M293.143,128.617a15.086,15.086,0,0,0-1.916-.113h-1.752c-3.231,0-4.546.712-5.867,1.954-2.694,0-2.731,1.957-2.731,4.889v6.4a3.825,3.825,0,0,0-1.341,3.26,4.526,4.526,0,0,0,3.221,4.13,9.454,9.454,0,0,0,3.437,6.724v1.912c0,1.906-.071,2.458-2.576,3.354-5.284,1.889-11.373,3.85-11.78,7.107"/>
      <path class="b" d="M297.121,160.786c-1.252-.653-1.316-1.314-1.316-2.819v-2.51"/>
      <path class="b" d="M322.276,155.933c.815.192,2.851.583,3.793.7v1.338c0,1.6-.069,2.25-1.578,2.948"/>
      <path class="b" d="M347.026,164.708c-2.081-1.149-2.793-1.5-8.076-3.387-2.5-.9-2.577-1.448-2.577-3.354v-1.338a22.117,22.117,0,0,0,8.76-2.889s-3.71-3.613-3.71-12.358c0-7.038-4.812-11.635-10.2-11.729-2.791-.049-3.655.527-5.671,1.391"/>
      <path class="b" d="M277.945,181.266c.814-4.479,1.222-6.107,4.239-9.051,2-1.95,6.189-4.273,16.653-8.049,0,0,3.926-1.8,3.926-4.411v-3.446a28.929,28.929,0,0,1-2.909-7.093c-1.324-.33-3.138-1.793-3.879-4.578-1.131-4.255,1.533-5.565,1.533-5.565s0-5.232,0-8.848c0-3.45.054-6.65,1.978-6.65,4.349,0,6.442-2.681,11.065-2.681,3.107,0,6,1.053,6.974,2.681,3.664,0,4.508,2.686,4.508,6.71v8.788s2.665,1.31,1.533,5.565c-.74,2.785-2.554,4.248-3.878,4.578a28.906,28.906,0,0,1-2.91,7.093v3.446c0,2.615.918,3.373,4.325,4.6l14.25,5.508"/>
    </g>
    <g>
      <path class="c" d="M71.69,203.1a11.45,11.45,0,1,1-11.45-11.45A11.424,11.424,0,0,1,71.69,203.1Z"/>
      <g>
        <path class="c" d="M46.209,208.563H6.564A5.886,5.886,0,0,1,.7,202.694V165.246a5.886,5.886,0,0,1,5.869-5.87H57.573a5.886,5.886,0,0,1,5.869,5.87l-.033,23.426"/>
        <g>
          <g>
            <g>
              <path class="d" d="M46.209,208.563H6.564A5.886,5.886,0,0,1,.7,202.694V165.246a5.886,5.886,0,0,1,5.869-5.87H57.573a5.886,5.886,0,0,1,5.869,5.87l-.033,23.426"/>
              <line class="e" x1="0.762" y1="173.425" x2="63.442" y2="173.425"/>
            </g>
            <g class="f">
              <path class="g" d="M11.585,190.845a1.058,1.058,0,0,0,.348.881,1.676,1.676,0,0,0,1.022.286v.834a2.75,2.75,0,0,1-1.751-.519,1.73,1.73,0,0,1-.62-1.423v-1.8a1.009,1.009,0,0,0-.375-.885,1.882,1.882,0,0,0-1.089-.265v-.839a1.864,1.864,0,0,0,1.119-.286,1.016,1.016,0,0,0,.345-.846v-1.822a1.729,1.729,0,0,1,.644-1.435,2.691,2.691,0,0,1,1.727-.513v.828q-1.371.036-1.37,1.185v1.757a1.41,1.41,0,0,1-1.328,1.513v.071a1.41,1.41,0,0,1,1.328,1.513Z"/>
              <path class="g" d="M21.267,190.916l-1.084-2.769H16.694l-1.072,2.769H14.6l3.442-8.742h.852l3.424,8.742Zm-1.4-3.68-1.013-2.7q-.2-.512-.405-1.257a11.078,11.078,0,0,1-.375,1.257l-1.025,2.7Z"/>
              <path class="g" d="M29.642,184.747a2.438,2.438,0,0,1-.9,2.033,4.091,4.091,0,0,1-2.582.712H25.133v3.424H24.122v-8.707h2.256Q29.642,182.209,29.642,184.747Zm-4.509,1.876h.911a3.376,3.376,0,0,0,1.948-.436,1.6,1.6,0,0,0,.6-1.393,1.5,1.5,0,0,0-.565-1.286,2.955,2.955,0,0,0-1.763-.423H25.133Z"/>
              <path class="g" d="M32.075,190.916v-8.707h1.011v8.707Z"/>
              <path class="g" d="M36,188.1v-.905h2.924v.905Z"/>
              <path class="g" d="M46.505,190.916H40.52v-.792l4.621-7H40.663v-.912h5.71V183l-4.621,7h4.753Z"/>
              <path class="g" d="M50.712,187.492a1.411,1.411,0,0,1-1.328-1.513v-1.757q0-1.149-1.351-1.185v-.828a2.626,2.626,0,0,1,1.723.519,1.75,1.75,0,0,1,.629,1.429v1.822a1,1,0,0,0,.352.849,1.905,1.905,0,0,0,1.125.283v.839a1.909,1.909,0,0,0-1.1.265,1.009,1.009,0,0,0-.375.885v1.8a1.749,1.749,0,0,1-.61,1.42,2.7,2.7,0,0,1-1.742.522v-.834a1.639,1.639,0,0,0,1.006-.286,1.059,1.059,0,0,0,.345-.881v-1.769a1.482,1.482,0,0,1,.328-1.036,1.718,1.718,0,0,1,1-.477Z"/>
            </g>
          </g>
          <g>
            <path class="e" d="M71.69,203.1a11.45,11.45,0,1,1-11.45-11.45A11.424,11.424,0,0,1,71.69,203.1Z"/>
            <path class="d" d="M66.817,209.569a34.676,34.676,0,0,0-3.3-1.335s-1.241-.323-1.211-1.291c0-.115,0-.986,0-.986a8.271,8.271,0,0,0,.832-2.029,1.744,1.744,0,0,0,1.109-1.309c.324-1.218-.438-1.592-.438-1.592v-2.514c0-1.151-.242-1.92-1.29-1.92a2.411,2.411,0,0,0-1.995-.767c-1.322,0-1.921.767-3.165.767-.55,0-.567.916-.566,1.9,0,1.034,0,2.531,0,2.531s-.762.374-.438,1.592a1.744,1.744,0,0,0,1.109,1.309,8.248,8.248,0,0,0,.833,2.029v.986c0,.748-1.124,1.262-1.124,1.262a34.95,34.95,0,0,0-3.3,1.334"/>
          </g>
        </g>
      </g>
    </g>
    <g>
      <path class="c" d="M90.062,171.376a11.45,11.45,0,1,1-11.45-11.45A11.424,11.424,0,0,1,90.062,171.376Z"/>
      <g>
        <path class="c" d="M64.581,176.836H24.936a5.886,5.886,0,0,1-5.869-5.869V133.518a5.886,5.886,0,0,1,5.869-5.869H75.945a5.886,5.886,0,0,1,5.869,5.869l-.033,23.427"/>
        <g>
          <g>
            <g>
              <path class="h" d="M64.581,176.836H24.936a5.886,5.886,0,0,1-5.869-5.869V133.518a5.886,5.886,0,0,1,5.869-5.869H75.945a5.886,5.886,0,0,1,5.869,5.869l-.033,23.427"/>
              <line class="i" x1="19.134" y1="141.697" x2="81.814" y2="141.697"/>
            </g>
            <g class="j">
              <path class="g" d="M29.957,159.117a1.058,1.058,0,0,0,.348.882,1.685,1.685,0,0,0,1.022.285v.834a2.75,2.75,0,0,1-1.751-.518,1.736,1.736,0,0,1-.62-1.423v-1.8a1.007,1.007,0,0,0-.375-.884,1.875,1.875,0,0,0-1.089-.265v-.84a1.857,1.857,0,0,0,1.119-.286,1.013,1.013,0,0,0,.345-.846v-1.822a1.73,1.73,0,0,1,.644-1.435,2.7,2.7,0,0,1,1.727-.512v.828q-1.369.034-1.37,1.185v1.756a1.41,1.41,0,0,1-1.328,1.513v.072a1.41,1.41,0,0,1,1.328,1.512Z"/>
              <path class="g" d="M39.639,159.188l-1.084-2.769H35.066l-1.072,2.769H32.969l3.443-8.742h.851l3.424,8.742Zm-1.4-3.68-1.013-2.7q-.2-.513-.4-1.257a11.2,11.2,0,0,1-.375,1.257l-1.025,2.7Z"/>
              <path class="g" d="M48.014,153.019a2.441,2.441,0,0,1-.9,2.034,4.091,4.091,0,0,1-2.582.711H43.505v3.424H42.494v-8.706H44.75Q48.014,150.482,48.014,153.019ZM43.505,154.9h.911a3.385,3.385,0,0,0,1.948-.435,1.6,1.6,0,0,0,.6-1.394,1.5,1.5,0,0,0-.565-1.286,2.962,2.962,0,0,0-1.763-.423H43.505Z"/>
              <path class="g" d="M50.447,159.188v-8.706h1.011v8.706Z"/>
              <path class="g" d="M54.37,156.372v-.906h2.923v.906Z"/>
              <path class="g" d="M61.816,154.835l2.322-4.353h1.1l-2.906,5.33v3.376H61.3v-3.329l-2.9-5.377h1.107Z"/>
              <path class="g" d="M69.563,155.764a1.41,1.41,0,0,1-1.328-1.513V152.5q0-1.15-1.352-1.185v-.828a2.633,2.633,0,0,1,1.724.518,1.753,1.753,0,0,1,.629,1.429v1.822a1,1,0,0,0,.351.849,1.9,1.9,0,0,0,1.125.283v.84a1.9,1.9,0,0,0-1.1.265,1.007,1.007,0,0,0-.375.884v1.8a1.749,1.749,0,0,1-.611,1.42,2.7,2.7,0,0,1-1.742.521v-.834A1.646,1.646,0,0,0,67.89,160a1.06,1.06,0,0,0,.345-.882v-1.769a1.477,1.477,0,0,1,.328-1.036,1.718,1.718,0,0,1,1-.476Z"/>
            </g>
          </g>
          <path class="i" d="M90.062,171.376a11.45,11.45,0,1,1-11.45-11.45A11.424,11.424,0,0,1,90.062,171.376Z"/>
          <path class="h" d="M72.449,177.8A16.072,16.072,0,0,1,75.5,176.52c.945-.338.972-.546.972-1.266v-.5a8.358,8.358,0,0,1-3.307-1.091s1.4-1.364,1.4-4.666a4.12,4.12,0,0,1,3.852-4.428l.283-.008a4.119,4.119,0,0,1,3.851,4.428c0,3.3,1.4,4.665,1.4,4.665a8.358,8.358,0,0,1-3.307,1.091v.5c0,.72.027.928.973,1.266a16.173,16.173,0,0,1,3.049,1.279"/>
        </g>
      </g>
    </g>
    <g>
      <path class="c" d="M107.287,139.438a11.45,11.45,0,1,1-11.45-11.45A11.424,11.424,0,0,1,107.287,139.438Z"/>
      <g>
        <path class="c" d="M81.806,144.9H42.161a5.886,5.886,0,0,1-5.869-5.87V101.581a5.886,5.886,0,0,1,5.869-5.869H93.17a5.886,5.886,0,0,1,5.869,5.869l-.034,23.426"/>
        <g>
          <g>
            <g>
              <path class="k" d="M81.806,144.9H42.161a5.886,5.886,0,0,1-5.869-5.87V101.581a5.886,5.886,0,0,1,5.869-5.869H93.17a5.886,5.886,0,0,1,5.869,5.869l-.034,23.426"/>
              <line class="l" x1="36.359" y1="109.76" x2="99.039" y2="109.76"/>
            </g>
            <g class="m">
              <path class="g" d="M47.183,127.179a1.055,1.055,0,0,0,.348.882,1.682,1.682,0,0,0,1.021.285v.834a2.75,2.75,0,0,1-1.751-.518,1.735,1.735,0,0,1-.619-1.423v-1.805a1.007,1.007,0,0,0-.375-.884,1.876,1.876,0,0,0-1.09-.265v-.84a1.852,1.852,0,0,0,1.119-.286,1.011,1.011,0,0,0,.346-.846v-1.822a1.73,1.73,0,0,1,.644-1.435,2.694,2.694,0,0,1,1.726-.512v.828q-1.369.034-1.369,1.185v1.756a1.41,1.41,0,0,1-1.328,1.513v.072a1.41,1.41,0,0,1,1.328,1.512Z"/>
              <path class="g" d="M56.865,127.25l-1.084-2.769h-3.49l-1.072,2.769H50.2l3.442-8.742h.852l3.424,8.742Zm-1.4-3.68-1.012-2.7q-.2-.513-.406-1.257a11.2,11.2,0,0,1-.375,1.257l-1.024,2.7Z"/>
              <path class="g" d="M65.24,121.081a2.439,2.439,0,0,1-.9,2.034,4.089,4.089,0,0,1-2.582.711H60.731v3.424H59.719v-8.706h2.257Q65.24,118.544,65.24,121.081Zm-4.509,1.876h.911a3.382,3.382,0,0,0,1.947-.435,1.6,1.6,0,0,0,.6-1.394,1.5,1.5,0,0,0-.566-1.286,2.959,2.959,0,0,0-1.762-.423H60.731Z"/>
              <path class="g" d="M67.672,127.25v-8.706h1.012v8.706Z"/>
              <path class="g" d="M71.6,124.434v-.906h2.924v.906Z"/>
              <path class="g" d="M82.621,127.25h-1.15l-2.34-3.829-2.383,3.829H75.677l2.894-4.549-2.7-4.157h1.12l2.162,3.448,2.179-3.448h1.079l-2.7,4.121Z"/>
              <path class="g" d="M87,123.826a1.411,1.411,0,0,1-1.329-1.513v-1.756q0-1.15-1.351-1.185v-.828a2.63,2.63,0,0,1,1.723.518,1.753,1.753,0,0,1,.629,1.429v1.822a1,1,0,0,0,.352.849,1.9,1.9,0,0,0,1.125.283v.84a1.9,1.9,0,0,0-1.1.265,1.007,1.007,0,0,0-.375.884v1.805a1.751,1.751,0,0,1-.61,1.42,2.694,2.694,0,0,1-1.742.521v-.834a1.651,1.651,0,0,0,1.007-.285,1.063,1.063,0,0,0,.344-.882V125.41A1.478,1.478,0,0,1,86,124.374a1.712,1.712,0,0,1,1-.476Z"/>
            </g>
          </g>
          <g>
            <path class="l" d="M107.287,139.438a11.45,11.45,0,1,1-11.45-11.45A11.424,11.424,0,0,1,107.287,139.438Z"/>
            <path class="k" d="M102.414,145.9a34.568,34.568,0,0,0-3.3-1.334s-1.242-.324-1.212-1.292c0-.115,0-.986,0-.986a8.276,8.276,0,0,0,.833-2.029,1.745,1.745,0,0,0,1.109-1.309c.324-1.217-.438-1.592-.438-1.592v-2.514c0-1.151-.242-1.919-1.29-1.919a2.408,2.408,0,0,0-2-.767c-1.322,0-1.921.767-3.165.767-.55,0-.567.915-.566,1.9,0,1.034,0,2.531,0,2.531s-.762.375-.439,1.592a1.744,1.744,0,0,0,1.11,1.309,8.255,8.255,0,0,0,.832,2.029v.986c0,.749-1.123,1.262-1.123,1.262a34.519,34.519,0,0,0-3.3,1.335"/>
          </g>
        </g>
      </g>
    </g>
    <g>
      <polyline class="n" points="159.113 109.394 165.433 112.777 168.815 106.582"/>
      <path class="n" d="M68.053,89.249a54.766,54.766,0,0,1,97.073,23.013"/>
    </g>
    <g>
      <path class="n" d="M194.489,191.253a53.863,53.863,0,0,0,30.758,36.334h0a54.029,54.029,0,0,0,70.861-27.981h0"/>
      <polyline class="n" points="289.31 201.539 296.287 199.405 298.444 206.258"/>
    </g>
    <g>
      <g>
        <g>
          <path class="o" d="M211.016,194.983H148.05a8.937,8.937,0,0,1-8.911-8.911V129.219a8.937,8.937,0,0,1,8.911-8.911h77.44a8.937,8.937,0,0,1,8.911,8.911l-.051,41.18"/>
          <line class="p" x1="139.241" y1="141.636" x2="234.401" y2="141.636"/>
        </g>
        <line class="k" x1="165.22" y1="152.689" x2="180.929" y2="152.689"/>
        <line class="k" x1="185.452" y1="152.689" x2="213.901" y2="152.689"/>
        <line class="k" x1="222.069" y1="159.825" x2="178.541" y2="159.825"/>
        <line class="k" x1="174.633" y1="159.825" x2="162.91" y2="159.825"/>
        <line class="k" x1="199.697" y1="166.946" x2="162.75" y2="166.946"/>
        <line class="k" x1="170.224" y1="176.319" x2="187.335" y2="176.319"/>
        <line class="k" x1="191.563" y1="176.319" x2="211.366" y2="176.319"/>
        <line class="k" x1="196.727" y1="183.627" x2="162.798" y2="183.627"/>
        <line class="k" x1="155.318" y1="152.689" x2="161.141" y2="152.689"/>
        <line class="k" x1="155.001" y1="176.319" x2="166.027" y2="176.319"/>
        <g>
          <path class="g" d="M147.6,135.513a.989.989,0,0,0,.327.827,1.575,1.575,0,0,0,.959.268v.783a2.582,2.582,0,0,1-1.644-.487,1.63,1.63,0,0,1-.582-1.336v-1.694a.947.947,0,0,0-.351-.83,1.765,1.765,0,0,0-1.024-.249v-.788a1.737,1.737,0,0,0,1.051-.268.95.95,0,0,0,.324-.794v-1.711a1.627,1.627,0,0,1,.605-1.347,2.53,2.53,0,0,1,1.621-.481v.778q-1.285.033-1.286,1.112v1.649a1.322,1.322,0,0,1-1.246,1.42v.067a1.324,1.324,0,0,1,1.246,1.42Z"/>
          <path class="g" d="M156.122,135.58l-1.018-2.6h-3.276l-1.006,2.6h-.962l3.231-8.207h.8l3.215,8.207Zm-1.315-3.456-.95-2.532c-.123-.32-.25-.714-.38-1.179a10.365,10.365,0,0,1-.353,1.179l-.96,2.532Z"/>
          <path class="g" d="M163.983,129.788a2.288,2.288,0,0,1-.847,1.909,3.831,3.831,0,0,1-2.424.668h-.961v3.215h-.95v-8.174h2.118Q163.984,127.406,163.983,129.788Zm-4.232,1.761h.856a3.181,3.181,0,0,0,1.828-.408,1.505,1.505,0,0,0,.564-1.309,1.41,1.41,0,0,0-.531-1.207,2.771,2.771,0,0,0-1.655-.4h-1.062Z"/>
          <path class="g" d="M166.267,135.58v-8.174h.95v8.174Z"/>
          <path class="g" d="M172.4,132.365a1.322,1.322,0,0,1-1.246-1.42V129.3q0-1.078-1.27-1.112v-.778a2.462,2.462,0,0,1,1.618.487,1.641,1.641,0,0,1,.59,1.341v1.711a.946.946,0,0,0,.33.8,1.785,1.785,0,0,0,1.057.265v.788a1.783,1.783,0,0,0-1.034.249.946.946,0,0,0-.353.83v1.694a1.641,1.641,0,0,1-.572,1.334,2.542,2.542,0,0,1-1.636.489v-.783a1.546,1.546,0,0,0,.946-.268,1,1,0,0,0,.324-.827v-1.661a1.392,1.392,0,0,1,.307-.973,1.621,1.621,0,0,1,.939-.447Z"/>
        </g>
      </g>
      <path class="p" d="M222.494,177.008q-2.856.075-2.857,2.471v4.663c0,1.78-.745,2.893-2.329,3.154v.149c1.479.257,2.329,1.374,2.329,3.154v4.688a2.2,2.2,0,0,0,.727,1.838,3.5,3.5,0,0,0,2.13.6"/>
      <path class="g" d="M225.332,187.631a.828.828,0,0,1,.169-.564.615.615,0,0,1,.487-.192.658.658,0,0,1,.5.192.8.8,0,0,1,.181.564.782.782,0,0,1-.184.556.727.727,0,0,1-.97.019A.759.759,0,0,1,225.332,187.631Z"/>
      <path class="g" d="M230.1,187.631a.828.828,0,0,1,.17-.564.614.614,0,0,1,.486-.192.66.66,0,0,1,.5.192.8.8,0,0,1,.18.564.781.781,0,0,1-.183.556.727.727,0,0,1-.97.019A.756.756,0,0,1,230.1,187.631Z"/>
      <path class="g" d="M234.869,187.631a.823.823,0,0,1,.17-.564.614.614,0,0,1,.486-.192.656.656,0,0,1,.5.192.792.792,0,0,1,.181.564.781.781,0,0,1-.183.556.729.729,0,0,1-.971.019A.759.759,0,0,1,234.869,187.631Z"/>
      <path class="p" d="M239.173,197.721q2.856-.075,2.857-2.471v-4.664c0-1.779.746-2.893,2.329-3.153v-.15c-1.479-.256-2.329-1.374-2.329-3.153v-4.688a2.2,2.2,0,0,0-.727-1.838,3.491,3.491,0,0,0-2.13-.6"/>
    </g>
    <g>
      <path class="p" d="M326.408,175.263q-2.976.078-2.976,2.574v4.857c0,1.853-.777,3.013-2.426,3.284v.156c1.541.267,2.426,1.431,2.426,3.284V194.3a2.284,2.284,0,0,0,.757,1.914,3.641,3.641,0,0,0,2.219.621"/>
      <g>
        <path class="g" d="M329.363,186.327a.86.86,0,0,1,.176-.587.639.639,0,0,1,.507-.2.681.681,0,0,1,.524.2.823.823,0,0,1,.188.587.809.809,0,0,1-.191.579.678.678,0,0,1-.521.2.687.687,0,0,1-.489-.182A.792.792,0,0,1,329.363,186.327Z"/>
        <path class="g" d="M334.329,186.327a.86.86,0,0,1,.177-.587.639.639,0,0,1,.507-.2.683.683,0,0,1,.524.2.828.828,0,0,1,.188.587.813.813,0,0,1-.191.579.678.678,0,0,1-.521.2.687.687,0,0,1-.489-.182A.793.793,0,0,1,334.329,186.327Z"/>
        <path class="g" d="M339.3,186.327a.86.86,0,0,1,.177-.587.636.636,0,0,1,.506-.2.685.685,0,0,1,.525.2.828.828,0,0,1,.188.587.813.813,0,0,1-.191.579.68.68,0,0,1-.522.2.689.689,0,0,1-.489-.182A.8.8,0,0,1,339.3,186.327Z"/>
      </g>
      <path class="p" d="M343.779,196.836q2.975-.078,2.975-2.574v-4.857c0-1.853.777-3.013,2.426-3.284v-.156c-1.541-.267-2.426-1.431-2.426-3.284V177.8a2.284,2.284,0,0,0-.757-1.914,3.638,3.638,0,0,0-2.218-.621"/>
    </g>
  </g>
</svg>
