<svg xmlns="http://www.w3.org/2000/svg" width="350" height="300" viewBox="0 0 350 300">
  <defs>
    <style>
      .a, .b, .e, .f, .g, .h, .i, .k {
        fill: none;
      }

      .a, .b, .e, .f, .g, .h, .i, .k, .m {
        stroke: #4a494d;
      }

      .a, .f, .g, .h, .i, .o {
        stroke-linecap: round;
      }

      .a, .b, .e, .f, .g, .h, .i, .k, .m, .o {
        stroke-miterlimit: 10;
      }

      .c {
        fill: #4a494d;
      }

      .d, .e, .f, .g {
        opacity: 0.4;
      }

      .e, .g, .h, .k {
        stroke-width: 0.75px;
      }

      .f {
        stroke-width: 1.5px;
        stroke-dasharray: 0 4;
      }

      .i {
        stroke-width: 1.25px;
      }

      .j {
        opacity: 0.55;
      }

      .l, .m, .o {
        fill: #fff;
      }

      .n {
        opacity: 0.2;
      }

      .o {
        stroke: #494949;
        stroke-width: 0.5px;
      }
    </style>
  </defs>
  <title>SW</title>
  <g>
    <path class="a" d="M19.687,146.53V62.4A16.431,16.431,0,0,1,36.07,46.014H176.223A16.431,16.431,0,0,1,192.606,62.4V97.449"/>
    <line class="b" x1="19.972" y1="87.008" x2="192.396" y2="87.008"/>
    <g>
      <path class="c" d="M40.9,75a1.677,1.677,0,0,0,.554,1.4,2.674,2.674,0,0,0,1.628.456v1.328a4.378,4.378,0,0,1-2.79-.825,2.764,2.764,0,0,1-.986-2.267V72.225a1.6,1.6,0,0,0-.6-1.41,3,3,0,0,0-1.736-.421V69.056a2.96,2.96,0,0,0,1.783-.456,1.616,1.616,0,0,0,.551-1.347v-2.9a2.759,2.759,0,0,1,1.024-2.287,4.3,4.3,0,0,1,2.752-.817v1.319q-2.182.059-2.182,1.888v2.8a2.245,2.245,0,0,1-2.116,2.409v.114A2.247,2.247,0,0,1,40.9,72.187Z"/>
      <path class="c" d="M55.355,75.118l-1.728-4.412H48.068L46.36,75.118H44.728l5.484-13.929h1.357l5.456,13.929Zm-2.23-5.863-1.613-4.3q-.314-.816-.645-2a17.676,17.676,0,0,1-.6,2l-1.632,4.3Z"/>
      <path class="c" d="M68.7,65.288a3.886,3.886,0,0,1-1.437,3.24,6.513,6.513,0,0,1-4.113,1.134H61.517v5.456H59.9V61.246H63.5Q68.7,61.246,68.7,65.288Zm-7.182,2.989h1.451a5.394,5.394,0,0,0,3.1-.692,2.556,2.556,0,0,0,.958-2.221,2.393,2.393,0,0,0-.9-2.05,4.712,4.712,0,0,0-2.807-.672h-1.8Z"/>
      <path class="c" d="M72.575,75.118V61.246h1.613V75.118Z"/>
      <path class="c" d="M82.982,69.662a2.245,2.245,0,0,1-2.116-2.409v-2.8q0-1.832-2.154-1.888V61.246a4.193,4.193,0,0,1,2.746.826,2.789,2.789,0,0,1,1,2.278v2.9a1.6,1.6,0,0,0,.561,1.352,3.035,3.035,0,0,0,1.793.451v1.338a3.039,3.039,0,0,0-1.756.421,1.607,1.607,0,0,0-.6,1.41V75.1a2.785,2.785,0,0,1-.972,2.262,4.292,4.292,0,0,1-2.775.83V76.864a2.613,2.613,0,0,0,1.6-.456,1.687,1.687,0,0,0,.55-1.4V72.187a2.362,2.362,0,0,1,.521-1.652,2.752,2.752,0,0,1,1.595-.759Z"/>
    </g>
    <g>
      <path class="c" d="M237.329,101.552h1.736l-5,13.872h-1.593L227.5,101.552h1.708l3.187,8.976a24.783,24.783,0,0,1,.873,3.008,25.113,25.113,0,0,1,.893-3.065Z"/>
      <path class="c" d="M246.821,115.424h-1.537v-9.887q0-1.233.076-2.334c-.133.133-.282.273-.446.417s-.917.763-2.258,1.851l-.835-1.082,3.672-2.837h1.328Z"/>
    </g>
    <g class="d">
      <path class="c" d="M237.329,193.86h1.736l-5,13.872h-1.593L227.5,193.86h1.708l3.187,8.977a24.679,24.679,0,0,1,.873,3.008,25.127,25.127,0,0,1,.893-3.066Z"/>
      <path class="c" d="M250.1,207.732h-9.118v-1.356l3.653-3.672a27.17,27.17,0,0,0,2.2-2.41,6.147,6.147,0,0,0,.8-1.4,4.028,4.028,0,0,0,.265-1.471,2.331,2.331,0,0,0-.673-1.76,2.581,2.581,0,0,0-1.869-.65,4.683,4.683,0,0,0-1.636.285A6.5,6.5,0,0,0,242,196.328l-.835-1.072a6.389,6.389,0,0,1,4.175-1.595,4.41,4.41,0,0,1,3.064,1,3.446,3.446,0,0,1,1.11,2.691,5.19,5.19,0,0,1-.74,2.609,16.585,16.585,0,0,1-2.77,3.264l-3.036,2.969v.077H250.1Z"/>
    </g>
    <line class="a" x1="192.606" y1="118.851" x2="192.606" y2="187.877"/>
    <g>
      <path class="e" d="M17.665,156.909l24.021.246a16.08,16.08,0,0,1,15.868,16.2L57.4,188.884a16.08,16.08,0,0,1-16.2,15.868l-2.446-.025-.082,8.05-10.5-8.158-10.995-.113A16.079,16.079,0,0,1,1.31,188.31l.159-15.533A16.079,16.079,0,0,1,17.665,156.909Z"/>
      <g>
        <line class="b" x1="35.973" y1="182.083" x2="21.467" y2="181.934"/>
        <line class="b" x1="28.794" y1="174.756" x2="28.646" y2="189.262"/>
      </g>
    </g>
    <line class="f" x1="160.091" y1="201.033" x2="221.617" y2="201.033"/>
    <line class="f" x1="160.091" y1="107.732" x2="221.617" y2="107.732"/>
    <line class="a" x1="19.566" y1="221" x2="19.566" y2="245.184"/>
    <line class="g" x1="87.171" y1="107.908" x2="154.288" y2="107.908"/>
    <line class="g" x1="140.171" y1="119.692" x2="87.291" y2="119.692"/>
    <line class="g" x1="81.719" y1="119.692" x2="64.316" y2="119.692"/>
    <line class="g" x1="116.625" y1="130.883" x2="79.928" y2="130.883"/>
    <line class="g" x1="82.825" y1="144.29" x2="134.491" y2="144.29"/>
    <line class="g" x1="124.833" y1="155.188" x2="63.228" y2="155.188"/>
    <line class="g" x1="52.603" y1="107.908" x2="81.376" y2="107.908"/>
    <line class="g" x1="52.497" y1="144.29" x2="77.061" y2="144.29"/>
    <g>
      <path class="c" d="M99.64,249.607a1.6,1.6,0,0,1,.329-1.1,1.2,1.2,0,0,1,.945-.373,1.279,1.279,0,0,1,.977.373,1.545,1.545,0,0,1,.35,1.1,1.51,1.51,0,0,1-.356,1.079,1.269,1.269,0,0,1-.971.378,1.284,1.284,0,0,1-.913-.34A1.478,1.478,0,0,1,99.64,249.607Z"/>
      <path class="c" d="M108.063,249.607a1.6,1.6,0,0,1,.329-1.1,1.194,1.194,0,0,1,.944-.373,1.276,1.276,0,0,1,.977.373,1.54,1.54,0,0,1,.351,1.1,1.515,1.515,0,0,1-.356,1.079,1.416,1.416,0,0,1-1.884.038A1.478,1.478,0,0,1,108.063,249.607Z"/>
      <path class="c" d="M116.485,249.607a1.609,1.609,0,0,1,.329-1.1,1.2,1.2,0,0,1,.945-.373,1.279,1.279,0,0,1,.977.373,1.54,1.54,0,0,1,.351,1.1,1.515,1.515,0,0,1-.356,1.079,1.416,1.416,0,0,1-1.884.038A1.478,1.478,0,0,1,116.485,249.607Z"/>
    </g>
    <g class="d">
      <line class="h" x1="86.688" y1="167.266" x2="126.39" y2="167.266"/>
      <line class="h" x1="132.398" y1="167.266" x2="154.288" y2="167.266"/>
      <line class="h" x1="135.456" y1="179.051" x2="86.808" y2="179.051"/>
      <line class="h" x1="81.236" y1="179.051" x2="67.833" y2="179.051"/>
      <line class="h" x1="116.142" y1="190.242" x2="79.445" y2="190.242"/>
      <line class="h" x1="67.395" y1="167.266" x2="80.893" y2="167.266"/>
    </g>
    <line class="i" x1="67.749" y1="201.429" x2="89.543" y2="201.429"/>
    <line class="i" x1="96.184" y1="201.429" x2="152.395" y2="201.429"/>
    <line class="i" x1="142.395" y1="213.814" x2="86.038" y2="213.814"/>
    <line class="i" x1="80.301" y1="213.814" x2="53.895" y2="213.814"/>
    <line class="i" x1="117.097" y1="226.171" x2="78.204" y2="226.171"/>
    <line class="g" x1="140.377" y1="144.29" x2="153.805" y2="144.29"/>
    <line class="a" x1="192.606" y1="213.858" x2="192.606" y2="244.608"/>
    <g>
      <g class="j">
        <path class="k" d="M332.807,88.261l2.614,2.906-.071,44a9.6,9.6,0,0,1-9.605,9.59h-37.2a6.687,6.687,0,0,1-5.363-2.685"/>
      </g>
      <g>
        <g>
          <g>
            <path class="l" d="M321.359,138.217H280.637a7.575,7.575,0,0,1-7.574-7.58l.046-52.758a7.573,7.573,0,0,1,7.55-7.567l37.227-.112,11.126,11.125-.08,49.331A7.573,7.573,0,0,1,321.359,138.217Z"/>
            <path class="b" d="M321.359,138.217H280.637a7.575,7.575,0,0,1-7.574-7.58l.046-52.758a7.573,7.573,0,0,1,7.55-7.567l37.227-.112,11.126,11.125-.08,49.331A7.573,7.573,0,0,1,321.359,138.217Z"/>
          </g>
          <polyline class="m" points="325.467 83.294 316.973 83.294 316.973 74.599"/>
        </g>
        <g>
          <line class="a" x1="315.113" y1="100.692" x2="286.903" y2="100.692"/>
          <line class="a" x1="315.113" y1="107.048" x2="286.903" y2="107.048"/>
          <line class="a" x1="302.753" y1="113.858" x2="286.676" y2="113.858"/>
          <line class="a" x1="295.471" y1="93.524" x2="286.903" y2="93.524"/>
        </g>
      </g>
      <g class="n">
        <path class="k" d="M339.087,95.326l2.615,2.906-.071,43.353a9.606,9.606,0,0,1-9.606,9.59h-37.2a6.688,6.688,0,0,1-5.363-2.685"/>
      </g>
    </g>
    <g>
      <g class="j">
        <path class="k" d="M332.625,187.444l2.615,2.907-.071,44a9.606,9.606,0,0,1-9.606,9.59h-37.2A6.688,6.688,0,0,1,283,241.254"/>
      </g>
      <g>
        <g>
          <g>
            <path class="l" d="M321.177,237.4H280.455a7.573,7.573,0,0,1-7.573-7.58l.045-52.758a7.573,7.573,0,0,1,7.55-7.567l37.227-.112,11.126,11.125-.08,49.331A7.572,7.572,0,0,1,321.177,237.4Z"/>
            <path class="b" d="M321.177,237.4H280.455a7.573,7.573,0,0,1-7.573-7.58l.045-52.758a7.573,7.573,0,0,1,7.55-7.567l37.227-.112,11.126,11.125-.08,49.331A7.572,7.572,0,0,1,321.177,237.4Z"/>
          </g>
          <polyline class="m" points="325.286 182.478 316.792 182.478 316.792 173.783"/>
        </g>
        <g>
          <line class="a" x1="314.931" y1="199.3" x2="286.721" y2="199.3"/>
          <line class="a" x1="314.931" y1="205.656" x2="286.721" y2="205.656"/>
          <line class="a" x1="302.571" y1="212.466" x2="286.494" y2="212.466"/>
          <line class="a" x1="295.289" y1="192.132" x2="286.721" y2="192.132"/>
        </g>
      </g>
      <g class="n">
        <path class="k" d="M338.905,194.51l2.615,2.906-.071,43.353a9.605,9.605,0,0,1-9.605,9.59h-37.2a6.685,6.685,0,0,1-5.362-2.685"/>
      </g>
    </g>
    <circle class="o" cx="326.902" cy="233.536" r="19.908"/>
    <circle class="o" cx="327.084" cy="134.111" r="19.908"/>
    <g>
      <path class="c" d="M325.6,129.924h1.68l-3.468,9.9h-1.707l-3.454-9.9h1.666l2.066,6.157q.162.44.345,1.134t.238,1.033c.058-.343.149-.74.27-1.192s.222-.785.3-1Z"/>
      <path class="c" d="M333.258,139.826h-1.592v-6.393q0-1.144.054-1.816-.156.164-.383.36t-1.521,1.246l-.8-1.01,2.913-2.289h1.328Z"/>
    </g>
    <g class="d">
      <path class="c" d="M324.652,229.491h1.679l-3.467,9.9h-1.707l-3.454-9.9h1.666l2.065,6.157q.162.44.346,1.134t.237,1.033q.089-.513.27-1.192t.3-1Z"/>
      <path class="c" d="M334.346,239.394h-6.712v-1.206l2.554-2.567a21.662,21.662,0,0,0,1.5-1.642,3.887,3.887,0,0,0,.538-.912,2.447,2.447,0,0,0,.17-.914,1.4,1.4,0,0,0-.4-1.056,1.543,1.543,0,0,0-1.115-.386,2.946,2.946,0,0,0-1.1.21,5.182,5.182,0,0,0-1.23.758l-.859-1.05a5.558,5.558,0,0,1,1.6-.988,4.686,4.686,0,0,1,1.66-.291,3.269,3.269,0,0,1,2.215.72,2.44,2.44,0,0,1,.833,1.941,3.406,3.406,0,0,1-.241,1.273,5.126,5.126,0,0,1-.738,1.243,16.935,16.935,0,0,1-1.655,1.731l-1.721,1.666v.067h4.7Z"/>
    </g>
  </g>
</svg>
