<svg xmlns="http://www.w3.org/2000/svg" width="350" height="300" viewBox="0 0 350 300">
  <defs>
    <style>
      .a, .g, .h, .k, .l {
        fill: #fff;
      }

      .a, .b, .d, .e, .g, .h, .i, .l, .n {
        stroke: #4a494d;
      }

      .a, .d, .e, .h, .n, .p, .q {
        stroke-linecap: round;
      }

      .a, .b, .d, .e, .g, .h, .i, .l, .n, .p, .q {
        stroke-miterlimit: 10;
      }

      .b, .d, .e, .i, .n, .p, .q {
        fill: none;
      }

      .c, .h {
        opacity: 0.4;
      }

      .d, .g, .i {
        stroke-width: 0.75px;
      }

      .e, .p, .q {
        stroke-width: 1.25px;
      }

      .f {
        fill: #4a494d;
      }

      .j {
        opacity: 0.75;
      }

      .m {
        opacity: 0.2;
      }

      .o, .q {
        opacity: 0.5;
      }

      .p, .q {
        stroke: #494949;
      }
    </style>
  </defs>
  <title>SW</title>
  <g>
    <g>
      <g>
        <path class="a" d="M112.011,173.816H29.4a11.644,11.644,0,0,1-11.61-11.61V88.13A11.645,11.645,0,0,1,29.4,76.52h100.9a11.645,11.645,0,0,1,11.61,11.61l-.067,52.29"/>
        <line class="b" x1="17.919" y1="106.023" x2="141.905" y2="106.023"/>
      </g>
      <g class="c">
        <g>
          <line class="d" x1="51.767" y1="118.71" x2="72.235" y2="118.71"/>
          <line class="d" x1="77.327" y1="118.71" x2="104.429" y2="118.71"/>
          <line class="d" x1="115.071" y1="128.008" x2="69.124" y2="128.008"/>
          <line class="d" x1="64.032" y1="128.008" x2="48.758" y2="128.008"/>
          <line class="d" x1="96.689" y1="137.286" x2="48.55" y2="137.286"/>
          <line class="d" x1="58.287" y1="149.498" x2="80.582" y2="149.498"/>
          <line class="d" x1="86.091" y1="149.498" x2="103.945" y2="149.498"/>
          <line class="d" x1="92.819" y1="159.02" x2="48.612" y2="159.02"/>
        </g>
      </g>
      <line class="e" x1="38.866" y1="118.71" x2="46.453" y2="118.71"/>
      <line class="e" x1="38.453" y1="149.498" x2="52.819" y2="149.498"/>
      <g>
        <path class="f" d="M34.459,97.8a1.453,1.453,0,0,0,.48,1.215,2.316,2.316,0,0,0,1.41.395v1.15a3.787,3.787,0,0,1-2.416-.715,2.391,2.391,0,0,1-.854-1.963v-2.49a1.39,1.39,0,0,0-.518-1.22,2.59,2.59,0,0,0-1.5-.365V92.643a2.566,2.566,0,0,0,1.544-.394,1.4,1.4,0,0,0,.477-1.167V88.568a2.389,2.389,0,0,1,.887-1.98,3.718,3.718,0,0,1,2.383-.707v1.143q-1.89.048-1.89,1.635v2.423a1.944,1.944,0,0,1-1.832,2.087v.1a1.944,1.944,0,0,1,1.832,2.087Z"/>
        <path class="f" d="M46.975,97.893l-1.5-3.82H40.664l-1.479,3.82H37.772l4.749-12.061H43.7L48.42,97.893Zm-1.931-5.077-1.4-3.722q-.27-.706-.558-1.734a15.38,15.38,0,0,1-.518,1.734l-1.413,3.722Z"/>
        <path class="f" d="M58.529,89.381a3.362,3.362,0,0,1-1.245,2.806,5.633,5.633,0,0,1-3.561.982H52.309v4.724h-1.4V85.881h3.114Q58.528,85.881,58.529,89.381Zm-6.22,2.588h1.257a4.669,4.669,0,0,0,2.687-.6,2.209,2.209,0,0,0,.83-1.923,2.075,2.075,0,0,0-.78-1.775,4.086,4.086,0,0,0-2.432-.583H52.309Z"/>
        <path class="f" d="M61.884,97.893V85.881h1.4V97.893Z"/>
        <path class="f" d="M70.055,93.169a1.945,1.945,0,0,1-1.833-2.087V88.659q0-1.586-1.865-1.635V85.881a3.632,3.632,0,0,1,2.378.715,2.418,2.418,0,0,1,.867,1.972v2.514a1.386,1.386,0,0,0,.485,1.171,2.623,2.623,0,0,0,1.553.39V93.8a2.626,2.626,0,0,0-1.52.365,1.39,1.39,0,0,0-.518,1.22v2.49a2.414,2.414,0,0,1-.841,1.959,3.726,3.726,0,0,1-2.4.719v-1.15a2.267,2.267,0,0,0,1.389-.395,1.46,1.46,0,0,0,.476-1.215v-2.44a2.046,2.046,0,0,1,.452-1.43,2.365,2.365,0,0,1,1.381-.657Z"/>
      </g>
    </g>
    <g>
      <path class="g" d="M147.619,170.718,128.061,155.63l-.009-.018-.011-.009v.011l-.009-.007v.014l.009.018L128,179.571l5.834-4.461,3.969,7.942,3.222-1.454.02-.009,3.221-1.454-3.975-7.939Z"/>
      <line class="h" x1="121.221" y1="166.128" x2="118.869" y2="167.71"/>
      <line class="h" x1="118.869" y1="158.869" x2="115.538" y2="159.148"/>
      <line class="h" x1="120.829" y1="151.703" x2="117.987" y2="150.028"/>
      <line class="h" x1="129.45" y1="148.074" x2="129.352" y2="144.724"/>
      <line class="h" x1="137.68" y1="150.773" x2="140.129" y2="148.632"/>
      <line class="h" x1="140.619" y1="157.752" x2="144.146" y2="157.194"/>
    </g>
    <g>
      <g class="c">
        <path class="i" d="M320.714,106.932l3.4,3.775-.092,57.139A12.474,12.474,0,0,1,311.544,180.3H263.237a8.686,8.686,0,0,1-6.965-3.487"/>
      </g>
      <g class="j">
        <path class="i" d="M313.153,98.467l3.395,3.775-.092,57.139a12.474,12.474,0,0,1-12.474,12.454H255.675a8.686,8.686,0,0,1-6.965-3.487"/>
      </g>
      <g>
        <g>
          <path class="k" d="M298.285,163.344H245.4a9.834,9.834,0,0,1-9.835-9.843l.059-68.515a9.834,9.834,0,0,1,9.805-9.827l48.345-.146,14.449,14.448-.1,64.064A9.835,9.835,0,0,1,298.285,163.344Z"/>
          <path class="b" d="M298.285,163.344H245.4a9.834,9.834,0,0,1-9.835-9.843l.059-68.515a9.834,9.834,0,0,1,9.805-9.827l48.345-.146,14.449,14.448-.1,64.064A9.835,9.835,0,0,1,298.285,163.344Z"/>
        </g>
        <polyline class="l" points="303.621 92.017 292.59 92.017 292.59 80.725"/>
      </g>
      <g class="m">
        <path class="i" d="M328.818,116.154l3.4,3.774-.092,56.3a12.474,12.474,0,0,1-12.474,12.454H271.34a8.683,8.683,0,0,1-6.964-3.487"/>
      </g>
      <g>
        <line class="n" x1="290.474" y1="113.938" x2="251.813" y2="113.938"/>
        <line class="n" x1="290.474" y1="121.901" x2="251.813" y2="121.901"/>
        <line class="n" x1="273.536" y1="130.434" x2="251.502" y2="130.434"/>
        <line class="n" x1="263.555" y1="104.955" x2="251.813" y2="104.955"/>
      </g>
    </g>
    <g class="o">
      <path class="p" d="M89.464,194.391a104.984,104.984,0,0,0,79.923,30.56h0a104.81,104.81,0,0,0,71.445-33.842"/>
    </g>
    <polyline class="q" points="240.904 200.346 241.116 190.841 231.759 190.557"/>
  </g>
</svg>
