<svg xmlns="http://www.w3.org/2000/svg" width="300" height="300" viewBox="0 0 300 300">
  <defs>
    <style>
      .a, .c {
        opacity: 0.5;
      }

      .b, .c, .e, .g, .j, .k {
        fill: none;
      }

      .b, .c {
        stroke: #494949;
      }

      .b, .c, .j, .k {
        stroke-linecap: round;
      }

      .b, .c, .e, .g, .h, .j, .k {
        stroke-miterlimit: 10;
      }

      .d {
        opacity: 0.55;
      }

      .e, .g, .h, .j, .k {
        stroke: #4a494d;
      }

      .e {
        stroke-width: 0.75px;
      }

      .f, .h {
        fill: #fff;
      }

      .i {
        opacity: 0.2;
      }

      .k {
        stroke-width: 2px;
      }
    </style>
  </defs>
  <title>SW</title>
  <g class="a">
    <polyline class="b" points="30.364 113.097 35.736 121.544 44.096 116.322"/>
  </g>
  <path class="c" d="M35.743,121.136A118.016,118.016,0,0,1,268.5,148.743"/>
  <g class="a">
    <polyline class="b" points="269.636 186.87 264.83 178.088 256.145 182.75"/>
  </g>
  <path class="c" d="M32.5,148.743a118.049,118.049,0,0,0,79.53,111.587s2.742.933,5.409,1.6"/>
  <path class="c" d="M264.822,178.075a118.218,118.218,0,0,1-83.037,84.475"/>
  <g>
    <g class="d">
      <path class="e" d="M184.605,127.211,188,130.98l-.092,57.066a12.458,12.458,0,0,1-12.457,12.438H127.2A8.675,8.675,0,0,1,120.246,197"/>
    </g>
    <g>
      <g>
        <path class="f" d="M169.757,192H116.941a9.822,9.822,0,0,1-9.822-9.831l.058-68.427a9.823,9.823,0,0,1,9.793-9.814l48.283-.146,14.43,14.43-.1,63.981A9.823,9.823,0,0,1,169.757,192Z"/>
        <path class="g" d="M169.757,192H116.941a9.822,9.822,0,0,1-9.822-9.831l.058-68.427a9.823,9.823,0,0,1,9.793-9.814l48.283-.146,14.43,14.43-.1,63.981A9.823,9.823,0,0,1,169.757,192Z"/>
      </g>
      <polyline class="h" points="175.086 120.769 164.07 120.769 164.07 109.491"/>
    </g>
    <g class="i">
      <path class="e" d="M192.751,136.374l3.391,3.77-.092,56.228a12.459,12.459,0,0,1-12.458,12.438H135.347a8.671,8.671,0,0,1-6.955-3.483"/>
    </g>
    <g>
      <line class="j" x1="162.775" y1="143.597" x2="125.361" y2="143.597"/>
      <line class="j" x1="162.775" y1="151.304" x2="125.361" y2="151.304"/>
      <line class="j" x1="146.383" y1="159.562" x2="125.06" y2="159.562"/>
      <line class="j" x1="136.724" y1="134.904" x2="125.361" y2="134.904"/>
    </g>
  </g>
  <polyline class="k" points="139.721 259.174 148.639 268.093 168.346 248.385"/>
</svg>
